<svg id="Layer_1" xmlns="http://www.w3.org/2000/svg" viewBox="-147 464.2 484 79.5" class="c-footer__vox-logo"><g><path fill="#fff" class="vox-media-logo-text" d="M-133.2 498l9.9 29 6.4-19.2c1.1-3.3 2.1-6.6 3-9.4h13.3l-13.2 32.4c-2.1 5.3-3.4 8.4-4.6 12l-10 .6-13.2-32c-1.6-4-3.6-9-5.4-12.9l13.8-.5zm38.8 23.6c0-14 9.3-24.4 23.2-24.4 13.3 0 22.1 9.8 22.1 22.1 0 14-9.4 24.4-23.2 24.4-13.4.1-22.1-9.8-22.1-22.1zm33-.9c0-8.4-4.3-13.6-10.3-13.6-6.4 0-10.5 6-10.5 13.2 0 8.4 4.3 13.6 10.3 13.6 6.4 0 10.5-6 10.5-13.2zm19.2 21.9l15.3-22.7-6-8.8-8.6-12.7 13.9-.5 9.1 14.2 3.1-5.3c1.6-2.6 3.8-6.1 5.4-8.6H3.7l-14.6 21.9 5.4 7.9c2.5 3.8 6.8 10.3 9.6 14.4l-14 .5-9.3-15.1-2.9 4.7c-1.4 2.3-4.4 7.2-6.1 9.8h-14v.3zm79.4-15.2l1.9-13.9c.6-4 1.6-12 1.8-15.3l9.6-.4c1.1 2.5 2.7 6.1 4 8.9l8.2 18.2 8-18.5c1.2-2.7 2.6-6 3.7-8.5h9.3c.4 3.7 1.4 11.5 2 15.6l2 13.9c.6 4.1 1.8 11.9 2.5 15.2l-12.4.5c-.1-1.8-.7-7.1-1.1-9.6l-1.8-14c-3.1 7.7-8.6 21.4-9.4 23.6l-6.6.3-9.5-23.3-1.5 13.5c-.3 2.5-.8 7.3-.8 9.1H34.7c.7-3.3 1.9-11.2 2.5-15.3zm96.1 15.5c-4.2-.3-9.3-.3-14.2-.3-5.5 0-11.5.1-16.2.3.3-3 .4-11.3.4-15.4v-14c0-4-.1-12.5-.4-15.6 4.6.2 9.6.3 15.3.3 5.2 0 10-.1 14.3-.3-.3 3.1-.5 6.2-.5 10-3.2-.1-6.4-.1-10.3-.1-1.9 0-4 0-5.8.1-.1.9-.1 2.2-.1 2.8v4.9l13.7-.1c-.1 2.6-.2 5.5-.2 8.8h-13.5v5.7c0 .7 0 2 .1 2.9 1.8 0 3.9.1 5.8.1 4.5 0 8.3-.1 12-.2-.2 3.2-.4 6.2-.4 10.1zm30-.3h-16.6c.3-3 .4-11.1.4-15.2v-13.9c0-4-.1-12-.4-15.1 2.3 0 7.9-.4 14.9-.4 16.7 0 26 8 26 21.5 0 14.2-9.5 23.1-24.3 23.1zm-.2-35c-1.3 0-2.1.1-3.1.2-.1.8-.1 2.1-.1 2.8v19.6c0 .8 0 1.7.1 2.6 1 .1 1.8.2 3.3.2 8.4 0 12-5.5 12-13-.1-7.9-4.7-12.4-12.2-12.4zm37.2 35c.3-3 .4-11.1.4-15.2v-13.9c0-4-.1-12.2-.4-15.2 2.5 0 11.3-.1 13.4-.3-.2 1.8-.3 6.9-.3 9.3v26.2c0 2.4.1 7.3.3 9.1h-13.4zm38.1-32.2c2.2-5.2 3.7-8.5 4.9-12l10.1-.6 13.8 32c1.6 3.9 4 9 5.8 12.9l-13.4.5-3.4-8.4h-15.4c-.8 2.1-2.6 7.1-3 7.9h-13.1l13.7-32.3zm4.9 16.5h10.1l-5.1-13.7-5 13.7z"></path><path fill="#F6A01A" d="M337 464.2V498l-30-16.9 30-16.9z"></path><path fill="#FBE346" d="M276.9 464.2V498l30.1-16.9-30.1-16.9z"></path><path fill="#F47B20" d="M307 481.1V515l30-17-30-16.9z"></path><path fill="#F8CC15" d="M307 481.1V515l-30.1-17 30.1-16.9z"></path></g></svg>
